<?xml version="1.0" encoding="UTF-8"?>
<mxfile host="app.diagrams.net" modified="2024-03-19T12:00:00.000Z" agent="Mozilla/5.0" version="21.7.5" type="device">
  <diagram id="prtHgNgQTEPvFCAcTncT" name="URL Shortener Architecture">
    <mxGraphModel dx="1298" dy="786" grid="1" gridSize="10" guides="1" tooltips="1" connect="1" arrows="1" fold="1" page="1" pageScale="1" pageWidth="827" pageHeight="1169" math="0" shadow="0">
      <root>
        <mxCell id="0" />
        <mxCell id="1" parent="0" />
        
        <!-- Client Layer -->
        <mxCell id="2" value="Client Applications" style="rounded=1;whiteSpace=wrap;html=1;fontSize=12;glass=0;strokeWidth=1;shadow=0;fillColor=#dae8fc;strokeColor=#6c8ebf;" vertex="1" parent="1">
          <mxGeometry x="320" y="40" width="160" height="60" as="geometry" />
        </mxCell>
        
        <!-- Load Balancer -->
        <mxCell id="3" value="Load Balancer" style="rounded=1;whiteSpace=wrap;html=1;fontSize=12;glass=0;strokeWidth=1;shadow=0;fillColor=#f5f5f5;strokeColor=#666666;fontColor=#333333;" vertex="1" parent="1">
          <mxGeometry x="320" y="140" width="160" height="40" as="geometry" />
        </mxCell>
        
        <!-- API Layer -->
        <mxCell id="4" value="API Layer&#xa;(Kotlin + Spring Boot)" style="swimlane;fontStyle=0;childLayout=stackLayout;horizontal=1;startSize=40;horizontalStack=0;resizeParent=1;resizeParentMax=0;resizeLast=0;collapsible=1;marginBottom=0;whiteSpace=wrap;html=1;fillColor=#d5e8d4;strokeColor=#82b366;" vertex="1" parent="1">
          <mxGeometry x="280" y="220" width="240" height="100" as="geometry" />
        </mxCell>
        <mxCell id="5" value="- URL Creation Controller&#xa;- URL Redirect Controller&#xa;- Health Check Endpoints" style="text;strokeColor=none;fillColor=none;align=left;verticalAlign=middle;spacingLeft=4;spacingRight=4;overflow=hidden;points=[[0,0.5],[1,0.5]];portConstraint=eastwest;rotatable=0;whiteSpace=wrap;html=1;" vertex="1" parent="4">
          <mxGeometry y="40" width="240" height="60" as="geometry" />
        </mxCell>
        
        <!-- Service Layer -->
        <mxCell id="6" value="Service Layer" style="swimlane;fontStyle=0;childLayout=stackLayout;horizontal=1;startSize=30;horizontalStack=0;resizeParent=1;resizeParentMax=0;resizeLast=0;collapsible=1;marginBottom=0;whiteSpace=wrap;html=1;fillColor=#fff2cc;strokeColor=#d6b656;" vertex="1" parent="1">
          <mxGeometry x="280" y="360" width="240" height="90" as="geometry" />
        </mxCell>
        <mxCell id="7" value="- URL Shortening Service&#xa;- Hash Generation Service&#xa;- Cache Management Service" style="text;strokeColor=none;fillColor=none;align=left;verticalAlign=middle;spacingLeft=4;spacingRight=4;overflow=hidden;points=[[0,0.5],[1,0.5]];portConstraint=eastwest;rotatable=0;whiteSpace=wrap;html=1;" vertex="1" parent="6">
          <mxGeometry y="30" width="240" height="60" as="geometry" />
        </mxCell>
        
        <!-- Redis -->
        <mxCell id="8" value="Redis Cache" style="shape=cylinder3;whiteSpace=wrap;html=1;boundedLbl=1;backgroundOutline=1;size=15;fillColor=#f8cecc;strokeColor=#b85450;" vertex="1" parent="1">
          <mxGeometry x="160" y="500" width="120" height="80" as="geometry" />
        </mxCell>
        
        <!-- Cassandra -->
        <mxCell id="9" value="Cassandra Cluster" style="shape=cylinder3;whiteSpace=wrap;html=1;boundedLbl=1;backgroundOutline=1;size=15;fillColor=#e1d5e7;strokeColor=#9673a6;" vertex="1" parent="1">
          <mxGeometry x="520" y="500" width="120" height="80" as="geometry" />
        </mxCell>
        
        <!-- Connections -->
        <mxCell id="10" value="" style="endArrow=classic;html=1;rounded=0;exitX=0.5;exitY=1;exitDx=0;exitDy=0;entryX=0.5;entryY=0;entryDx=0;entryDy=0;" edge="1" parent="1" source="2" target="3">
          <mxGeometry width="50" height="50" relative="1" as="geometry" />
        </mxCell>
        <mxCell id="11" value="" style="endArrow=classic;html=1;rounded=0;exitX=0.5;exitY=1;exitDx=0;exitDy=0;entryX=0.5;entryY=0;entryDx=0;entryDy=0;" edge="1" parent="1" source="3" target="4">
          <mxGeometry width="50" height="50" relative="1" as="geometry" />
        </mxCell>
        <mxCell id="12" value="" style="endArrow=classic;html=1;rounded=0;exitX=0.5;exitY=1;exitDx=0;exitDy=0;entryX=0.5;entryY=0;entryDx=0;entryDy=0;" edge="1" parent="1" source="4" target="6">
          <mxGeometry width="50" height="50" relative="1" as="geometry" />
        </mxCell>
        <mxCell id="13" value="" style="endArrow=classic;html=1;rounded=0;exitX=0.25;exitY=1;exitDx=0;exitDy=0;entryX=0.5;entryY=0;entryDx=0;entryDy=0;entryPerimeter=0;" edge="1" parent="1" source="6" target="8">
          <mxGeometry width="50" height="50" relative="1" as="geometry" />
        </mxCell>
        <mxCell id="14" value="" style="endArrow=classic;html=1;rounded=0;exitX=0.75;exitY=1;exitDx=0;exitDy=0;entryX=0.5;entryY=0;entryDx=0;entryDy=0;entryPerimeter=0;" edge="1" parent="1" source="6" target="9">
          <mxGeometry width="50" height="50" relative="1" as="geometry" />
        </mxCell>
        
        <!-- Labels -->
        <mxCell id="15" value="HTTP/HTTPS" style="text;html=1;strokeColor=none;fillColor=none;align=center;verticalAlign=middle;whiteSpace=wrap;rounded=0;" vertex="1" parent="1">
          <mxGeometry x="400" y="110" width="80" height="20" as="geometry" />
        </mxCell>
        <mxCell id="16" value="Cache Lookup" style="text;html=1;strokeColor=none;fillColor=none;align=center;verticalAlign=middle;whiteSpace=wrap;rounded=0;" vertex="1" parent="1">
          <mxGeometry x="200" y="460" width="80" height="20" as="geometry" />
        </mxCell>
        <mxCell id="17" value="Persistent Storage" style="text;html=1;strokeColor=none;fillColor=none;align=center;verticalAlign=middle;whiteSpace=wrap;rounded=0;" vertex="1" parent="1">
          <mxGeometry x="520" y="460" width="100" height="20" as="geometry" />
        </mxCell>
      </root>
    </mxGraphModel>
  </diagram>
</mxfile> 